<?xml version="1.0" encoding="UTF-8"?>
<svg xmlns="http://www.w3.org/2000/svg" viewBox="0 0 840.74 650.4">
  <polygon
    points="840.74 0 840.74 650.4 750.74 650.4 750.74 218 716.01 310.2 619.84 310.2 702.79 90 736.69 0 750.74 0 750.74 .21 750.82 0 840.74 0" />
  <polygon
    points="704.7 340.2 621.75 560.4 587.85 650.4 482.22 650.4 448.32 560.4 420.37 486.21 377.98 373.67 365.37 340.2 462.43 340.2 480.93 386.37 516.99 476.37 537.74 528.14 608.54 340.2 704.7 340.2" />
  <polygon
    points="385.53 478.22 299.64 478.68 213.68 479.34 160.47 479.74 130.08 560.4 96.17 650.4 0 650.4 33.9 560.4 65.56 476.37 99.46 386.37 116.85 340.2 213.03 340.2 195.64 386.37 351.13 386.37 385.53 478.22" />
  <polygon
    points="450.25 310.2 354.06 310.2 289.2 138.02 224.34 310.2 128.16 310.2 211.11 90 241.11 10.36 245.01 0 333.39 0 337.29 10.37 367.29 90 450.25 310.2" />
</svg>